# xmcd
#
# Track frame offsets: 
#        150
#        7043
#        20039
#        24332
#        36674
#        49421
#        60339
#        71741
#        84506
#        94643
#        105693
#        117899
#        129673
#
# Disc length: 1892 seconds
#
# Revision: 0
# Processed by: cddbd v1.5.2PL0 Copyright (c) Steve Scherf et al.
# Submitted via: ExactAudioCopy v1.0b3
#
DISCID=af07620d
DTITLE=Kalim - Sechs Kronen
DYEAR=2014
DGENRE=Hip Hop
TTITLE0=Intro
TTITLE1=Stadtrundfahrt
TTITLE2=Skit
TTITLE3=Kalim and Xatar - BKA
TTITLE4=Hohlspitzgeschosse
TTITLE5=Chivas
TTITLE6=Kalim and Mista Malik - Stiefvaterstaat
TTITLE7=Mach nicht auf teuer
TTITLE8=1995
TTITLE9=Kalim and Xatar - Zuu viel
TTITLE10=Kalim and Ssio - Nein leider niemals!
TTITLE11=Kalim and Nate57 - Hauptsache es läuft
TTITLE12=Dichter und Denker
EXTD=
EXTT0=
EXTT1=
EXTT2=
EXTT3=
EXTT4=
EXTT5=
EXTT6=
EXTT7=
EXTT8=
EXTT9=
EXTT10=
EXTT11=
EXTT12=
PLAYORDER=
